<svg width="20" height="20" viewBox="0 0 20 20" fill="none" xmlns="http://www.w3.org/2000/svg">
<g clip-path="url(#clip0_2576_10960)">
<mask id="mask0_2576_10960" style="mask-type:luminance" maskUnits="userSpaceOnUse" x="0" y="0" width="20" height="20">
<path d="M0 0H20V20H0V0Z" fill="white"/>
</mask>
<g mask="url(#mask0_2576_10960)">
<path d="M19.4123 6.75472C19.4123 3.88629 17.087 1.56103 14.2191 1.56103C12.478 1.56103 10.9417 2.42051 9.99909 3.73419C9.05699 2.42051 7.52015 1.56103 5.77962 1.56103C2.9112 1.56103 0.585938 3.88629 0.585938 6.75472C0.585938 7.16103 0.637516 7.55472 0.725938 7.93419C1.44752 12.4142 6.42857 17.1416 9.99909 18.4395C13.5691 17.1416 18.5512 12.4142 19.2712 7.93419C19.3607 7.55472 19.4123 7.16103 19.4123 6.75472Z" fill="#704DE2"/>
</g>
</g>
<defs>
<clipPath id="clip0_2576_10960">
<rect width="20" height="20" fill="white"/>
</clipPath>
</defs>
</svg>
