<svg width="18" height="18" viewBox="0 0 18 18" fill="none" xmlns="http://www.w3.org/2000/svg">
<path d="M2.87438 10.7492C3.84053 10.7492 4.62375 9.96602 4.62375 8.99986C4.62375 8.03371 3.84053 7.25049 2.87438 7.25049C1.90822 7.25049 1.125 8.03371 1.125 8.99986C1.125 9.96602 1.90822 10.7492 2.87438 10.7492Z" fill="black"/>
<path d="M8.99937 10.7492C9.96553 10.7492 10.7488 9.96602 10.7488 8.99986C10.7488 8.03371 9.96553 7.25049 8.99937 7.25049C8.03322 7.25049 7.25 8.03371 7.25 8.99986C7.25 9.96602 8.03322 10.7492 8.99937 10.7492Z" fill="black"/>
<path d="M15.1263 10.7492C16.0925 10.7492 16.8757 9.96602 16.8757 8.99986C16.8757 8.03371 16.0925 7.25049 15.1263 7.25049C14.1602 7.25049 13.377 8.03371 13.377 8.99986C13.377 9.96602 14.1602 10.7492 15.1263 10.7492Z" fill="black"/>
</svg>
