<svg width="20" height="20" viewBox="0 0 20 20" fill="none" xmlns="http://www.w3.org/2000/svg">
<path d="M14.9993 18.3332C14.8531 18.3332 14.7094 18.2947 14.5827 18.2215L9.99935 15.5782L5.41602 18.2215C5.28933 18.2946 5.14563 18.3331 4.99935 18.3331C4.85308 18.3332 4.70937 18.2946 4.58269 18.2215C4.45601 18.1484 4.35081 18.0432 4.27767 17.9165C4.20453 17.7898 4.16602 17.6461 4.16602 17.4998V4.1665C4.16668 3.50367 4.43028 2.86817 4.89898 2.39947C5.36768 1.93077 6.00318 1.66717 6.66602 1.6665H13.3327C13.9955 1.66717 14.631 1.93077 15.0997 2.39947C15.5684 2.86817 15.832 3.50367 15.8327 4.1665V17.4998C15.8327 17.7208 15.7449 17.9328 15.5886 18.0891C15.4323 18.2454 15.2204 18.3332 14.9993 18.3332Z" fill="#704DE2"/>
</svg>
