<?xml version="1.0" encoding="UTF-8"?>
<svg version="1.1" viewBox="0 0 2048 2048" width="1280" height="1280" xmlns="http://www.w3.org/2000/svg">
<path transform="translate(392)" d="m0 0h1265l44 7 32 7 29 9 24 9 24 11 25 13 24 15 18 13 14 11 13 11 15 14 18 18 9 11 9 10 14 19 12 18 8 13 10 18 8 16 8 17 10 27 7 22 6 24 6 33 4 29v1256l-6 43-8 38-9 29-11 29-16 33-13 23-10 15-12 17-13 16-9 11-7 7-7 8-13 13-8 7-15 13-20 15-24 16-19 11-25 13-26 11-22 8-28 8-34 7-39 6h-1258l-35-5-32-6-30-8-26-9-26-11-28-14-20-12-15-10-14-10-16-13-13-11-17-16-8-8-7-8-10-11-8-10-12-16-16-24-15-26-12-25-11-27-9-28-6-24-6-32-4-29v-1265l8-49 7-29 8-26 9-24 11-24 8-15 6-11 9-15 8-12 12-17 13-16 9-10 7-8 26-26 11-9 12-10 18-13 18-12 17-10 23-12 24-11 24-9 27-8 36-8 32-5z" fill="#6300C1"/>
<path transform="translate(1766,277)" d="m0 0h4l-2 10-21 79-25 93-27 101-26 97-48 179-22 82-27 101-21 78-27 101-15 56-22 82-20 75-48 179-25 93-15 56-7 27-1 2h-3l-12-28-20-48-18-43-11-26-8-20-5-11-15-36-36-86-15-36-17-40-12-29-19-45-5-13-5-11-15-36-31-74-36-86-16-38-13-31-8-20-5-9v-2l-9-3-36-15-117-49-112-47-88-37-131-55-112-47-45-19-48-20-40-17-30-12 1-3 43-12 63-17 42-11 137-37 117-31 32-9 91-24 44-12 38-10 51-14 195-52 44-12 117-31 32-9 188-50 36-10 195-52z" fill="#A872DB"/>
<path transform="translate(1600,395)" d="m0 0v3l-5 5h-2l-1 3h-2l-2 4-521 521h-6l-16-7-112-47-150-63-45-19-24-10-26-11-24-10-55-23-19-8-40-17-24-10-31-13 1-2 62-17 113-30 85-23 239-64 109-29 55-15 239-64 109-29 55-15z" fill="#6300C1"/>
<path transform="translate(1650,447)" d="m0 0h1l-1 8-7 26-20 75-17 63-8 30-19 71-11 41-17 63-27 101-10 37-8 30-19 71-18 67-11 41-27 101-33 123-16 60-10 37-10 38-6 21h-3l-8-20-18-43-17-40-15-36-18-43-16-38-20-48-11-26-15-36-36-86-19-45-12-29-30-72-2-5 1-5 529-529z" fill="#6300C1"/>
</svg>
