<svg width="17" height="17" viewBox="0 0 17 17" fill="none" xmlns="http://www.w3.org/2000/svg">
<path d="M12.2266 0.357095L4.09804 3.0585C-1.36601 4.88645 -1.36601 7.867 4.09804 9.68595L6.51051 10.4874L7.31166 12.9006C9.13002 18.3665 12.1186 18.3665 13.9369 12.9006L16.6465 4.77839C17.8527 1.1315 15.8723 -0.858537 12.2266 0.357095ZM12.5147 5.20161L9.09401 8.6414C8.95898 8.77647 8.78795 8.83951 8.61692 8.83951C8.44588 8.83951 8.27485 8.77647 8.13982 8.6414C7.87877 8.38027 7.87877 7.94804 8.13982 7.68691L11.5605 4.24712C11.8215 3.98598 12.2536 3.98598 12.5147 4.24712C12.7757 4.50825 12.7757 4.94048 12.5147 5.20161Z" fill="#D9D9D9"/>
</svg>
